<?xml version="1.0" encoding="UTF-8" standalone="no"?>
<svg width="291px" height="65px" viewBox="0 0 291 65" version="1.1" xmlns="http://www.w3.org/2000/svg" xmlns:xlink="http://www.w3.org/1999/xlink" xmlns:sketch="http://www.bohemiancoding.com/sketch/ns">
    <!-- Generator: Sketch 3.5.2 (25235) - http://www.bohemiancoding.com/sketch -->
    <title>Exhibit</title>
    <desc>Created with Sketch.</desc>
    <defs>
        <filter x="-50%" y="-50%" width="200%" height="200%" filterUnits="objectBoundingBox" id="filter-1">
            <feOffset dx="0" dy="-6" in="SourceAlpha" result="shadowOffsetOuter1"></feOffset>
            <feGaussianBlur stdDeviation="2" in="shadowOffsetOuter1" result="shadowBlurOuter1"></feGaussianBlur>
            <feColorMatrix values="0 0 0 0 0   0 0 0 0 0   0 0 0 0 0  0 0 0 0.35 0" in="shadowBlurOuter1" type="matrix" result="shadowMatrixOuter1"></feColorMatrix>
            <feMerge>
                <feMergeNode in="shadowMatrixOuter1"></feMergeNode>
                <feMergeNode in="SourceGraphic"></feMergeNode>
            </feMerge>
        </filter>
    </defs>
    <g id="Page-1" stroke="none" stroke-width="1" fill="none" fill-rule="evenodd" sketch:type="MSPage">
        <g id="default-layout" sketch:type="MSArtboardGroup" transform="translate(-115.000000, -33.000000)">
            <rect id="background" fill="#4E4E4E" filter="url(#filter-1)" sketch:type="MSShapeGroup" x="0" y="-1" width="510" height="1227"></rect>
            <text id="Exhibit" sketch:type="MSTextLayer" font-family="Roboto Condensed" font-size="71" font-style="condensed" font-weight="260" fill="#FFFFFF">
                <tspan x="221" y="97">Exhibit</tspan>
            </text>
            <g id="NuVu" sketch:type="MSLayerGroup" transform="translate(115.000000, 33.000000)" fill="#F35D95">
                <path d="M75.8485962,63.8880274 C64.7020962,63.8880274 55.6336731,54.8658241 55.6336731,43.7758531 L55.6336731,28.0855239 C55.6336731,25.2942902 57.9163269,23.0230979 60.7221346,23.0230979 C63.5274808,23.0230979 65.8100192,25.2942902 65.8100192,28.0855239 L65.8100192,43.7758531 C65.8100192,49.2828974 70.3135962,53.7632902 75.8485962,53.7632902 L80.4084808,53.7632902 C85.9441731,53.7632902 90.4470577,49.2828974 90.4470577,43.7758531 L90.4470577,28.0855239 C90.4470577,25.2942902 92.7295962,23.0230979 95.5356346,23.0230979 C98.3408654,23.0230979 100.623404,25.2942902 100.623404,28.0855239 L100.623404,43.7758531 C100.623404,54.8658241 91.5552115,63.8880274 80.4084808,63.8880274 L75.8485962,63.8880274 Z" id="u" sketch:type="MSShapeGroup"></path>
                <path d="M44.5258385,64.9987924 C42.4785692,64.9987924 39.8321077,64.2889874 38.5463769,62.297217 L10.2253385,16.7847467 L10.2253385,58.8255669 C10.2253385,61.6169155 7.94268462,63.8879929 5.13710769,63.8879929 C2.33164615,63.8879929 0.0488769231,61.6169155 0.0488769231,58.8255669 L0.0488769231,6.62407732 C0.0488769231,4.30811328 2.52733846,1.33836639 5.24810769,0.392992946 C5.86726154,0.178088382 6.57018462,0.0690289073 7.33818462,0.0690289073 C9.52333846,0.0690289073 12.4521462,1.07306487 13.5754154,2.9339639 L41.7993,48.2895033 L41.7993,28.0856043 C41.7993,25.2942557 44.0819538,23.0232931 46.8875308,23.0232931 C49.6926462,23.0232931 51.9754154,25.2942557 51.9754154,28.0856043 L51.9754154,58.450632 C51.9754154,61.5754729 49.0811077,63.6990331 47.3707615,64.4610718 C46.5807231,64.8129321 45.5970692,64.9987924 44.5258385,64.9987924" id="N" sketch:type="MSShapeGroup"></path>
            </g>
        </g>
    </g>
</svg>