<svg id="Layer_3" data-name="Layer 3" xmlns="http://www.w3.org/2000/svg" viewBox="0 0 575.97 105.61"><defs><style>.cls-1,.cls-2{fill:#fff;}.cls-2{font-size:32.65px;font-family:Montserrat;font-weight:700;letter-spacing:4px;}</style></defs><title>logotype-2</title><path class="cls-1" d="M724.09,189.28c0-4.17,0-9.81,0-14a7.82,7.82,0,0,0-2.47-5.9,8.1,8.1,0,0,0-8.29-1.57,7.85,7.85,0,0,0-4.91,7c0,7.8,0,17.09,0,24.89a19.74,19.74,0,0,1-.17,2.93,15.29,15.29,0,0,1-4,8.32,15,15,0,0,1-10.8,4.78,43.64,43.64,0,0,1-10.09-.38,14.64,14.64,0,0,1-8.14-4.6,15.93,15.93,0,0,1-4.05-11.22c0.05-7.8,0-16.87,0-24.68a5,5,0,0,0,0-1.05,7.94,7.94,0,0,0-10.23-6,7.66,7.66,0,0,0-5.39,7.42c-0.06,8,0,17.23,0,25.21a31.13,31.13,0,0,0,.62,6A30.2,30.2,0,0,0,668,225.47a30.67,30.67,0,0,0,18.44,6c2.88,0,5.76.09,8.65-.14a32.51,32.51,0,0,0,7.27-1.29,30.82,30.82,0,0,0,21.69-29C724.15,197.11,724.09,193.19,724.09,189.28Z" transform="translate(-434.96 -132.09)"/><path class="cls-1" d="M724.09,189.28c0,3.92.06,7.84,0,11.76a30.82,30.82,0,0,1-21.69,29,32.51,32.51,0,0,1-7.27,1.29c-2.89.22-5.77,0.17-8.65,0.14a30.67,30.67,0,0,1-18.44-6,30.2,30.2,0,0,1-11.94-18.91,31.13,31.13,0,0,1-.62-6c0-8,0-17.23,0-25.21a7.66,7.66,0,0,1,5.39-7.42,7.94,7.94,0,0,1,10.23,6,5,5,0,0,1,0,1.05c0,7.8,0,16.87,0,24.68a15.93,15.93,0,0,0,4.05,11.22,14.64,14.64,0,0,0,8.14,4.6,43.64,43.64,0,0,0,10.09.38A15,15,0,0,0,704.2,211a15.29,15.29,0,0,0,4-8.32,19.74,19.74,0,0,0,.17-2.93c0-7.8,0-17.09,0-24.89a7.85,7.85,0,0,1,4.91-7,8.1,8.1,0,0,1,8.29,1.57,7.82,7.82,0,0,1,2.47,5.9C724.09,179.46,724.09,185.11,724.09,189.28Z" transform="translate(-434.96 -132.09)"/><path class="cls-1" d="M588.68,189.21q0,5.77,0,11.54a29.61,29.61,0,0,1-6.53,18.87,30.19,30.19,0,0,1-18.55,11.24c-4.42.84-8.88,0.68-13.33,0.58a29.52,29.52,0,0,1-9-1.54,32,32,0,0,1-9.08-4.82,30.74,30.74,0,0,1-9.56-12.24,27.43,27.43,0,0,1-2.36-9.66c-0.47-8.91-.15-19.53-0.17-28.45a7.45,7.45,0,0,1,4.91-7.14,8,8,0,0,1,8.43,1.7,7.66,7.66,0,0,1,2.32,5.62c0,7.62,0,16.94,0,24.57A15.78,15.78,0,0,0,540,211a14.8,14.8,0,0,0,9.56,4.61c2.57,0.23,5.13.18,7.69,0.16A15.46,15.46,0,0,0,568.8,211a14.55,14.55,0,0,0,4-8.3,24,24,0,0,0,.17-3.14c0-7.55.06-16.8,0-24.35a8,8,0,0,1,6.22-8,7.9,7.9,0,0,1,9.26,5.71,7.7,7.7,0,0,1,.22,2C588.68,179.12,588.68,185,588.68,189.21Z" transform="translate(-434.96 -132.09)"/><path class="cls-1" d="M634.28,205.18V193.44c0-6,0-12,0-18a7.85,7.85,0,0,1,2.4-5.83,7.93,7.93,0,0,1,13.24,4.22,4.75,4.75,0,0,1,0,1.06q0,23.51,0,47a7.76,7.76,0,0,1-2,5.23,12.4,12.4,0,0,1-5.53,4,11.91,11.91,0,0,1-5,.52,12.57,12.57,0,0,1-6-2.12A9.06,9.06,0,0,1,629,226.7q-4.21-6.77-8.4-13.55l-8.73-14.09-7.13-11.52q-5.46-8.82-10.91-17.64c-3.1-5-6.24-9.95-9.35-14.93-2.25-3.6-4.59-7.14-6.68-10.82a7.8,7.8,0,0,1,5.66-11.68c4.27-.51,6.59,1.44,8.3,4.27,2.95,4.88,6,9.71,9,14.55l9.43,15.25,7.79,12.58q5.23,8.47,10.45,16.94c1.9,3.06,3.82,6.1,5.74,9.16Z" transform="translate(-434.96 -132.09)"/><path class="cls-1" d="M724.09,189.28c0-4.17,0-9.81,0-14a7.82,7.82,0,0,0-2.47-5.9,8.1,8.1,0,0,0-8.29-1.57,7.85,7.85,0,0,0-4.91,7c0,7.8,0,17.09,0,24.89a19.74,19.74,0,0,1-.17,2.93,15.29,15.29,0,0,1-4,8.32,15,15,0,0,1-10.8,4.78,43.64,43.64,0,0,1-10.09-.38,14.64,14.64,0,0,1-8.14-4.6,15.93,15.93,0,0,1-4.05-11.22c0.05-7.8,0-16.87,0-24.68a5,5,0,0,0,0-1.05,7.94,7.94,0,0,0-10.23-6,7.66,7.66,0,0,0-5.39,7.42c-0.06,8,0,17.23,0,25.21a31.13,31.13,0,0,0,.62,6A30.2,30.2,0,0,0,668,225.47a30.67,30.67,0,0,0,18.44,6c2.88,0,5.76.09,8.65-.14a32.51,32.51,0,0,0,7.27-1.29,30.82,30.82,0,0,0,21.69-29C724.15,197.11,724.09,193.19,724.09,189.28Z" transform="translate(-434.96 -132.09)"/><path class="cls-1" d="M498.51,205.36c0-10.3,0-20.36,0-30.42a7.69,7.69,0,0,1,6.74-7.72,7.83,7.83,0,0,1,8.74,6,7.44,7.44,0,0,1,.19,1.76c0,15.39,0,30.78,0,46.17,0,3.29-1.58,5.66-3.93,7.63a10.34,10.34,0,0,1-5,2.5c-4.12.66-7.95,0.12-11-3a24.9,24.9,0,0,1-3-4.62q-3.69-5.93-7.37-11.87l-9.32-15.08-7.2-11.6-9.32-15.07c-2.41-3.89-4.82-7.77-7.45-11.62v1.09c0,21,0,43.91,0,64.91A7.84,7.84,0,0,1,436.17,228a8,8,0,0,1-1.19-4.69c0-26.19,0-54.28,0-80.47a9.68,9.68,0,0,1,2.58-6.34,11.83,11.83,0,0,1,5.83-4,12.75,12.75,0,0,1,9.64,1.39c2.13,1.12,3.18,3.17,4.36,5.09,2.67,4.31,5.31,8.64,8,13q5.77,9.36,11.56,18.71c2.58,4.17,5.18,8.32,7.76,12.48q5.76,9.31,11.5,18.62C496.9,202.91,497.64,204,498.51,205.36Z" transform="translate(-434.96 -132.09)"/><text class="cls-2" transform="translate(301.86 97.44)">WINTER 2016</text><text class="cls-2" transform="translate(300.04 62.48)">EXHIBIT</text></svg>