<?xml version="1.0" encoding="UTF-8" standalone="no"?>
<svg width="289px" height="65px" viewBox="0 0 289 65" version="1.1" xmlns="http://www.w3.org/2000/svg" xmlns:xlink="http://www.w3.org/1999/xlink" xmlns:sketch="http://www.bohemiancoding.com/sketch/ns">
    <!-- Generator: Sketch 3.5.2 (25235) - http://www.bohemiancoding.com/sketch -->
    <title>logo</title>
    <desc>Created with Sketch.</desc>
    <defs></defs>
    <g id="Page-1" stroke="none" stroke-width="1" fill="none" fill-rule="evenodd" sketch:type="MSPage">
        <g id="default-layout" sketch:type="MSArtboardGroup" transform="translate(-115.000000, -33.000000)">
            <g id="logo" sketch:type="MSLayerGroup" transform="translate(115.000000, 31.000000)">
                <path d="M135.502441,41.8364258 L115.915039,41.8364258 L115.915039,62.3251953 L138.449219,62.3251953 L138.449219,66 L111.962891,66 L111.962891,15.5234375 L138.275879,15.5234375 L138.275879,19.2675781 L115.915039,19.2675781 L115.915039,38.1616211 L135.502441,38.1616211 L135.502441,41.8364258 Z M156.476562,43.6391602 L164.692871,28.4892578 L169.234375,28.4892578 L158.591309,46.8979492 L169.650391,66 L165.143555,66 L156.51123,50.2260742 L147.844238,66 L143.337402,66 L154.361816,46.8979492 L143.753418,28.4892578 L148.260254,28.4892578 L156.476562,43.6391602 Z M180.778809,34.3828125 C181.888189,32.3720603 183.292228,30.7715717 184.990967,29.5812988 C186.689706,28.3910259 188.636871,27.7958984 190.83252,27.7958984 C197.373242,27.7958984 200.724446,32.1524629 200.88623,40.8657227 L200.88623,66 L197.072754,66 L197.072754,41.2817383 C197.049642,37.9304845 196.460292,35.4575275 195.304688,33.862793 C194.149083,32.2680584 192.334811,31.4707031 189.861816,31.4707031 C187.851064,31.4707031 186.04257,32.2276129 184.436279,33.7414551 C182.829989,35.2552973 181.610844,37.3295767 180.778809,39.9643555 L180.778809,66 L176.930664,66 L176.930664,12.75 L180.778809,12.75 L180.778809,34.3828125 Z M215.377441,66 L211.494629,66 L211.494629,28.4892578 L215.377441,28.4892578 L215.377441,66 Z M210.939941,17.6728516 C210.939941,16.8870403 211.159503,16.2167996 211.598633,15.6621094 C212.037763,15.1074191 212.66178,14.8300781 213.470703,14.8300781 C214.279626,14.8300781 214.909422,15.1074191 215.360107,15.6621094 C215.810793,16.2167996 216.036133,16.8870403 216.036133,17.6728516 C216.036133,18.4586628 215.810793,19.1231255 215.360107,19.6662598 C214.909422,20.209394 214.279626,20.480957 213.470703,20.480957 C212.66178,20.480957 212.037763,20.209394 211.598633,19.6662598 C211.159503,19.1231255 210.939941,18.4586628 210.939941,17.6728516 L210.939941,17.6728516 Z M251.640137,49.0126953 C251.640137,54.790719 250.628998,59.1819511 248.606689,62.1865234 C246.584381,65.1910958 243.574076,66.6933594 239.575684,66.6933594 C235.161274,66.6933594 231.890961,64.7866402 229.764648,60.9731445 L229.591309,66 L226.020508,66 L226.020508,12.75 L229.833984,12.75 L229.833984,33.7241211 C231.937185,29.7719529 235.161274,27.7958984 239.506348,27.7958984 C243.550964,27.7958984 246.567047,29.2230489 248.554688,32.0773926 C250.542328,34.9317363 251.5708,39.1900759 251.640137,44.8525391 L251.640137,49.0126953 Z M247.791992,45.5112305 C247.791992,40.750139 247.087084,37.2255974 245.677246,34.9375 C244.267408,32.6494026 241.956234,31.5053711 238.743652,31.5053711 C234.467915,31.5053711 231.498055,33.7587665 229.833984,38.265625 L229.833984,56.8476562 C230.619796,58.8121843 231.775383,60.3317817 233.300781,61.4064941 C234.82618,62.4812065 236.663563,63.0185547 238.812988,63.0185547 C241.886897,63.0185547 244.14607,61.9034128 245.590576,59.6730957 C247.035082,57.4427786 247.76888,53.9702384 247.791992,49.2553711 L247.791992,45.5112305 Z M264.848633,66 L260.96582,66 L260.96582,28.4892578 L264.848633,28.4892578 L264.848633,66 Z M260.411133,17.6728516 C260.411133,16.8870403 260.630694,16.2167996 261.069824,15.6621094 C261.508954,15.1074191 262.132971,14.8300781 262.941895,14.8300781 C263.750818,14.8300781 264.380613,15.1074191 264.831299,15.6621094 C265.281985,16.2167996 265.507324,16.8870403 265.507324,17.6728516 C265.507324,18.4586628 265.281985,19.1231255 264.831299,19.6662598 C264.380613,20.209394 263.750818,20.480957 262.941895,20.480957 C262.132971,20.480957 261.508954,20.209394 261.069824,19.6662598 C260.630694,19.1231255 260.411133,18.4586628 260.411133,17.6728516 L260.411133,17.6728516 Z M281.28125,18.9208984 L281.28125,28.4892578 L287.694824,28.4892578 L287.694824,31.9560547 L281.28125,31.9560547 L281.28125,56.8823242 C281.28125,58.9393006 281.587481,60.470454 282.199951,61.4758301 C282.812422,62.4812062 283.835117,62.9838867 285.268066,62.9838867 C285.892093,62.9838867 286.816563,62.868328 288.041504,62.637207 L288.145508,66.1040039 C287.267248,66.4969095 286.007658,66.6933594 284.366699,66.6933594 C279.859841,66.6933594 277.548666,63.5963851 277.433105,57.4023438 L277.433105,31.9560547 L271.643555,31.9560547 L271.643555,28.4892578 L277.433105,28.4892578 L277.433105,18.9208984 L281.28125,18.9208984 Z" id="Exhibit-Copy" fill="#FFFFFF" sketch:type="MSShapeGroup"></path>
                <g id="NuVu" transform="translate(0.000000, 2.000000)" fill="#F35D95" sketch:type="MSShapeGroup">
                    <path d="M75.8485962,63.8880274 C64.7020962,63.8880274 55.6336731,54.8658241 55.6336731,43.7758531 L55.6336731,28.0855239 C55.6336731,25.2942902 57.9163269,23.0230979 60.7221346,23.0230979 C63.5274808,23.0230979 65.8100192,25.2942902 65.8100192,28.0855239 L65.8100192,43.7758531 C65.8100192,49.2828974 70.3135962,53.7632902 75.8485962,53.7632902 L80.4084808,53.7632902 C85.9441731,53.7632902 90.4470577,49.2828974 90.4470577,43.7758531 L90.4470577,28.0855239 C90.4470577,25.2942902 92.7295962,23.0230979 95.5356346,23.0230979 C98.3408654,23.0230979 100.623404,25.2942902 100.623404,28.0855239 L100.623404,43.7758531 C100.623404,54.8658241 91.5552115,63.8880274 80.4084808,63.8880274 L75.8485962,63.8880274 Z" id="u"></path>
                    <path d="M44.5258385,64.9987924 C42.4785692,64.9987924 39.8321077,64.2889874 38.5463769,62.297217 L10.2253385,16.7847467 L10.2253385,58.8255669 C10.2253385,61.6169155 7.94268462,63.8879929 5.13710769,63.8879929 C2.33164615,63.8879929 0.0488769231,61.6169155 0.0488769231,58.8255669 L0.0488769231,6.62407732 C0.0488769231,4.30811328 2.52733846,1.33836639 5.24810769,0.392992946 C5.86726154,0.178088382 6.57018462,0.0690289073 7.33818462,0.0690289073 C9.52333846,0.0690289073 12.4521462,1.07306487 13.5754154,2.9339639 L41.7993,48.2895033 L41.7993,28.0856043 C41.7993,25.2942557 44.0819538,23.0232931 46.8875308,23.0232931 C49.6926462,23.0232931 51.9754154,25.2942557 51.9754154,28.0856043 L51.9754154,58.450632 C51.9754154,61.5754729 49.0811077,63.6990331 47.3707615,64.4610718 C46.5807231,64.8129321 45.5970692,64.9987924 44.5258385,64.9987924" id="N"></path>
                </g>
            </g>
        </g>
    </g>
</svg>