<svg id="Layer_1" data-name="Layer 1" xmlns="http://www.w3.org/2000/svg" viewBox="0 0 170.65 169.5"><defs><style>.cls-1{fill:#f2f2f2;}</style></defs><title>arrow</title><path class="cls-1" d="M440.21,615.55c-1-7.44-5.08-13.41-9-19.46a2.33,2.33,0,0,0-2-.3c-2.64.78-5.2,1.87-7.86,2.57-7.35,1.94-14,.62-19.55-4.78-3.21-3.16-6-6.7-9.3-10.35,12-5.45,23.38-9.35,34,2.06a48,48,0,0,1,.63-22.9c-18-3.31-19.53-14.28-19.2-25.82,5.19,1,10.28,2,14.69,5.09,4.58,3.22,6.06,8.09,6.81,12.76,3.43-3.72,6.89-7.58,10.5-11.28a12.58,12.58,0,0,1,3.59-2.07c-15.7,11.8-16.95,39.55-.93,53.68,0-2.51,0-5.2,0-7.88,0-7.34,2.78-13.52,8.66-17.84,4.63-3.4,9.76-6.1,14.82-9.21,6,21.45,3.16,33.11-17.81,42.73a40.55,40.55,0,0,1,5.21,13.24L519,615.9,444.69,455a17.12,17.12,0,0,0-29.75,0L348.33,615.9Z" transform="translate(-348.33 -446.4)"/></svg>