<svg id="Layer_1" data-name="Layer 1" xmlns="http://www.w3.org/2000/svg" viewBox="0 0 130.89 169.67"><defs><style>.cls-1{fill:#fff;}</style></defs><title>frog</title><path class="cls-1" d="M1998.83,521.65a45.21,45.21,0,0,0,10.43,10.51,67.21,67.21,0,0,0,26.21,11.27c19.66,4.06,38.9,2.95,57.4-5.37,8.12-3.65,15.14-8.79,20.35-16.15a3.12,3.12,0,0,1,.41-0.37,47.75,47.75,0,0,1,8,26.81c0,6.69,0,21,0,27.66v1s-130.82.37-130.82,0.24-0.19-23.89.09-32a46,46,0,0,1,7.4-22.95A7.19,7.19,0,0,1,1998.83,521.65Z" transform="translate(-1990.77 -447)"/><path class="cls-1" d="M2019.86,501.45c9.55-1,17-5,22.47-12.56s6.75-15.87,4.64-25a90.38,90.38,0,0,1,18.3,0c-2.13,9.07-.78,17.49,4.64,25s12.92,11.6,22.68,12.58a53,53,0,0,1-3.87,5.13c-4.43,4.58-10,7.23-16.06,8.9-13.67,3.78-27.1,3.21-40.13-2.66a26.22,26.22,0,0,1-11-8.58C2021,503.45,2020.52,502.55,2019.86,501.45Z" transform="translate(-1990.77 -447)"/><path class="cls-1" d="M2017.94,447a24.52,24.52,0,1,1-24.51,24.46A24.61,24.61,0,0,1,2017.94,447Zm0.09,32.7a8.24,8.24,0,0,0,8.1-8.2,8.18,8.18,0,0,0-16.37,0A8.28,8.28,0,0,0,2018,479.7Z" transform="translate(-1990.77 -447)"/><path class="cls-1" d="M2094.31,447a24.52,24.52,0,1,1-24.56,24.26A24.53,24.53,0,0,1,2094.31,447Zm0,16.38a8.06,8.06,0,0,0-8.2,8.15A8.16,8.16,0,1,0,2094.34,463.38Z" transform="translate(-1990.77 -447)"/><path class="cls-1" d="M1999.35,498a27.79,27.79,0,0,0,12.15,5.69c2,0.34,2.81,1.23,3.53,3,2,5,5.82,8.61,10.29,11.5a51,51,0,0,0,21.34,7.43,65.56,65.56,0,0,0,30.65-2.81c6.49-2.27,12.44-5.47,16.76-11,1.55-2,2.52-4.42,3.79-6.63a2.09,2.09,0,0,1,.94-1.07,31.24,31.24,0,0,0,14.09-6.15,18.29,18.29,0,0,1-.12,8.87c-1.54,6.44-5.32,11.44-10.27,15.62-8.4,7.08-18.3,10.94-28.93,13a87,87,0,0,1-45.25-2.79c-8.45-2.88-16.14-7.06-22.21-13.77-4.68-5.17-7.5-11.13-7.14-18.29a9.73,9.73,0,0,1,.08-1C1999.11,499.16,1999.22,498.68,1999.35,498Z" transform="translate(-1990.77 -447)"/><path class="cls-1" d="M0,137.67H130.89a0,0,0,0,1,0,0v24a8,8,0,0,1-8,8H8a8,8,0,0,1-8-8v-24A0,0,0,0,1,0,137.67Z"/></svg>