<svg id="Layer_1" data-name="Layer 1" xmlns="http://www.w3.org/2000/svg" viewBox="0 0 172.55 169"><defs><style>.cls-1{fill:#f2f2f2;}.cls-2{fill:#fff;}</style></defs><title>hammok</title><path class="cls-1" d="M1010.53,464.5s0.48,0.82,1.25,2.37c0.42,0.76,1,1.6,1.57,2.54l1.1,1.5a17.67,17.67,0,0,0,1.25,1.6l0.69,0.83,0.77,0.83a21.9,21.9,0,0,0,1.66,1.67,43.79,43.79,0,0,0,3.95,3.28,57.24,57.24,0,0,0,10.17,5.93,93.9,93.9,0,0,0,12.87,4.75,136.91,136.91,0,0,0,15,3.44c5.27,0.9,10.74,1.64,16.37,2.08s11.36,0.69,17.12.69l2.21,0h1.87l0.49,0c1.33-.08,2.56,0,4-0.13q4.29-.18,8.5-0.53c5.62-.46,11.09-1.19,16.36-2.09a138.06,138.06,0,0,0,14.95-3.44,94.43,94.43,0,0,0,12.86-4.73,57.42,57.42,0,0,0,10.17-5.91,43.77,43.77,0,0,0,4-3.27,21.94,21.94,0,0,0,1.66-1.67c0.53-.55,1-1.1,1.47-1.65a17.68,17.68,0,0,0,1.26-1.6l1.1-1.5c0.59-1,1.16-1.84,1.58-2.57l1.26-2.33s0.41,0.82,1.06,2.5a32.92,32.92,0,0,1,.9,3.2,28.74,28.74,0,0,1,.56,4.55,36,36,0,0,1-1.74,12.65,50.82,50.82,0,0,1-7.76,14.9,70.58,70.58,0,0,1-13.83,13.87A89.54,89.54,0,0,1,1138.67,527a104.05,104.05,0,0,1-21.5,6.75c-1.87.38-3.76,0.71-5.66,1-0.95.14-1.9,0.3-2.85,0.41l-2.87.29c-1.86.21-4,.34-6,0.43l-0.77,0-0.65,0-1.26,0-2.84.06a119.38,119.38,0,0,1-22.92-2.3,103.92,103.92,0,0,1-21.49-6.76,89.73,89.73,0,0,1-18.47-10.82,70.66,70.66,0,0,1-13.83-13.86,50.85,50.85,0,0,1-7.77-14.88,36,36,0,0,1-1.75-12.64,28.65,28.65,0,0,1,.55-4.54,27.88,27.88,0,0,1,.89-3.23C1010.12,465.36,1010.53,464.5,1010.53,464.5Z" transform="translate(-1007.99 -447)"/><path class="cls-2" d="M1034.09,605.83V534.31s13.31,12.33,54.8,12.33h9.91c41.49,0,55.36-12.33,55.36-12.33V606c0,5.52-4.93,10-11,10h-97.86C1039.1,616,1034.09,611.45,1034.09,605.83Z" transform="translate(-1007.99 -447)"/><path class="cls-2" d="M1156.77,469.73V452.08a5.36,5.36,0,0,0-5.6-5.08h-38.65l-17.44,28h-1.65l-19.65-28h-37.31a5.28,5.28,0,0,0-5.28,5.28v17.44s12.67,14.77,62.79,14.77S1156.77,469.73,1156.77,469.73Z" transform="translate(-1007.99 -447)"/></svg>