<svg id="Layer_1" data-name="Layer 1" xmlns="http://www.w3.org/2000/svg" viewBox="0 0 160.73 170.78"><defs><style>.cls-1{fill:#f2f2f2;}.cls-2{fill:#fff;stroke:#fff;stroke-miterlimit:10;stroke-width:15px;}</style></defs><title>hub</title><path class="cls-1" d="M677.52,572.33c0-17.43,0,8.31,0-8.71a13,13,0,0,1,11.4-13.06,13.26,13.26,0,0,1,14.79,10.12,12.59,12.59,0,0,1,.32,3c0,26,0,9.32,0,35.36,0,5.56-2.67,9.57-6.66,12.91a17.5,17.5,0,0,1-8.4,4.23c-7,1.12-13.45.19-18.62-5-2.19-2.21-3.46-5.17-5.1-7.81q-6.24-10-12.47-20.08-7.89-12.75-15.76-25.51-6.08-9.82-12.17-19.63-7.89-12.75-15.76-25.51c-4.07-6.58-8.15-13.15-12.6-19.66v1.85c0,35.53,0,74.29.05,109.83,0,5.61-5.26,11.46-11,12.17s-10.22-1.42-13.5-6.11a13.55,13.55,0,0,1-2-7.94c-0.06-44.31-.05-91.85,0-136.16,0-4.11,1.72-7.59,4.37-10.72a20,20,0,0,1,9.87-6.78c5.74-1.61,11.15-.36,16.32,2.36,3.61,1.9,5.38,5.36,7.39,8.6,4.52,7.3,9,14.63,13.49,21.93q9.76,15.84,19.55,31.66c4.36,7,8.77,14.07,13.14,21.12q9.75,15.74,19.46,31.51C674.8,568.17,676.07,570.07,677.52,572.33Z" transform="translate(-570 -446.13)"/><path class="cls-2" d="M723.23,482.92a34.48,34.48,0,0,1-1.91,11.93,25.82,25.82,0,0,1-5.35,8.87,24.29,24.29,0,0,1-8.26,5.74A32.32,32.32,0,0,1,697,511.9l-0.54,18.43c0,0.76-.56,4.25-5.66,4.25s-5.89-3.84-5.89-4.25l-0.46-21.18a8.6,8.6,0,0,1,.27-2.87,4.61,4.61,0,0,1,1-1.83,3.54,3.54,0,0,1,1.76-1,10.11,10.11,0,0,1,2.45-.27h1.68a20.76,20.76,0,0,0,8.49-1.57,15.51,15.51,0,0,0,5.7-4.17,16.27,16.27,0,0,0,3.17-6.12,26.89,26.89,0,0,0,1-7.34,24.94,24.94,0,0,0-1.22-8,17.16,17.16,0,0,0-3.67-6.27,16.41,16.41,0,0,0-6.16-4.09,24,24,0,0,0-8.76-1.45,28.25,28.25,0,0,0-7.76,1,39.22,39.22,0,0,0-5.77,2.1c-1.63.76-6.07,3.47-8.49,0.12s2.56-8.39,4-9.18a30.9,30.9,0,0,1,5.28-2.18,55.5,55.5,0,0,1,6.81-1.68,42,42,0,0,1,7.69-.69A38.19,38.19,0,0,1,706,456a27.1,27.1,0,0,1,9.71,6.31,25,25,0,0,1,5.66,9.33A34.66,34.66,0,0,1,723.23,482.92Z" transform="translate(-570 -446.13)"/></svg>