<svg id="Layer_1" data-name="Layer 1" xmlns="http://www.w3.org/2000/svg" viewBox="0 0 4636.65 209"><defs><style>.cls-1,.cls-3{fill:#fff;}.cls-2{fill:#f2f2f2;}.cls-3,.cls-6,.cls-7{stroke:#fff;}.cls-3{stroke-miterlimit:10;stroke-width:15px;}.cls-4,.cls-6,.cls-7{fill:none;}.cls-5{fill:#5d5d5d;}.cls-6,.cls-7{stroke-linecap:round;stroke-linejoin:round;}.cls-6{stroke-width:12px;}.cls-7{stroke-width:10px;}</style></defs><title>magic stairsa</title><path class="cls-1" d="M106.72,503H68l0-13h3.51a4.52,4.52,0,0,0,4-2.45l10.25-20.28a4.39,4.39,0,0,0,.24-2.08v-13c0-2.49-1.49-4.22-4-4.22H49.6c-2.49,0-5.6,1.74-5.6,4.22v12.84c0,0.8.76,1.58,1.16,2.26L57.3,487.74A5,5,0,0,0,61.47,490H64v12.69H26c-8.06,0-13.38,5.6-13.08,13.8,0.63,17.52,1.2,35,.06,52.53-0.54,8.35,4.92,14.17,13.05,14.18h3.5c0,4.19,0,8.15,0,12.11,0.1,10.9,7.87,18.79,18.72,18.86,12.27,0.08,26.34.08,38.61,0,7-.05,12.65-3,16.31-9.15a17.09,17.09,0,0,0,2.45-9.37c0-3.95,0-7.63,0-11.63h5.7c4.22,0,6.66-4.26,6.66-8.49V515C118,508.19,113.51,503,106.72,503ZM64,533.36V505h4v28.16a5.4,5.4,0,0,1,4.27,5.56,5.77,5.77,0,0,1-5.74,5.92A5.92,5.92,0,0,1,64,533.36Zm29.26,63.32c-0.15,3.82-2.44,5.47-6.31,5.48-12.31,0-26.42-.17-38.73-0.21-3.9,0-6.15-1.53-6.21-5.41C42,592.48,42,588,42,585H93.3C93.3,588,93.42,592.57,93.26,596.68Z" transform="translate(173.5 -441.39)"/><path class="cls-2" d="M440.21,615.55c-1-7.44-5.08-13.41-9-19.46a2.33,2.33,0,0,0-2-.3c-2.64.78-5.2,1.87-7.86,2.57-7.35,1.94-14,.62-19.55-4.78-3.21-3.16-6-6.7-9.3-10.35,12-5.45,23.38-9.35,34,2.06a48,48,0,0,1,.63-22.9c-18-3.31-19.53-14.28-19.2-25.82,5.19,1,10.28,2,14.69,5.09,4.58,3.22,6.06,8.09,6.81,12.76,3.43-3.72,6.89-7.58,10.5-11.28a12.58,12.58,0,0,1,3.59-2.07c-15.7,11.8-16.95,39.55-.93,53.68,0-2.51,0-5.2,0-7.88,0-7.34,2.78-13.52,8.66-17.84,4.63-3.4,9.76-6.1,14.82-9.21,6,21.45,3.16,33.11-17.81,42.73a40.55,40.55,0,0,1,5.21,13.24L519,615.9,444.69,455a17.12,17.12,0,0,0-29.75,0L348.33,615.9Z" transform="translate(173.5 -441.39)"/><path class="cls-1" d="M309,448.12c-7.05-.18-14.11-0.14-21.16,0-3.6.07-5.53,2.07-5.35,5s2.09,4.28,5.6,4.31c3.13,0,6.26,0,9.47,0l-22.29,22.36c-22-15.42-44-15.23-66.13.22l-4.75-4.56c2.62-2.5,5.1-4.73,7.43-7.12s2.59-4.94.6-7-4.63-1.95-7.05.4-4.59,4.85-7.13,7.56L187.75,458.1c3.88,0,6.86.06,9.84,0,3.34-.08,5.36-1.88,5.26-4.68-0.12-3.13-2.05-4.59-5-4.62q-10.58-.13-21.17,0c-2.87,0-4.58,1.67-4.61,4.55-0.08,7.05-.09,14.11,0,21.16,0,3.22,2.19,5.39,4.88,5.09,3-.34,4.37-2.24,4.33-5.25s0-6.11,0-9.16l10.94,10.89c-2.05,1.86-4.51,4-6.82,6.21-2.62,2.56-2.9,5.28-.93,7.27s5.22,1.75,7.69-.69c2.28-2.26,4.46-4.62,6.66-6.9l4.85,4.66c-12.19,16.23-15.15,34-7.43,52.68S219,568.26,239,571v22.37c-4,0-6.92-.08-10.13,0-3.44.11-5.36,1.83-5.35,4.7s1.81,4.46,5.29,4.51c3.31,0,6.6,0,10.13,0,0,3.4,0,6.28,0,9.16,0,4.06,1.5,6,4.52,6.12s4.85-2.1,4.94-6.2c0.06-2.95,0-5.9,0-9.08,3.67,0,6.78,0,9.88,0,3.52,0,5.39-1.56,5.5-4.38s-1.78-4.76-5.34-4.84c-3.2-.07-6.46,0-9.46,0v-22.4c42-5.44,60.22-52.23,35.07-84,7.43-7.43,14.73-14.8,22.14-22.22,0,2.93-.08,6.13,0,9.33,0,1,0,2.47.55,2.93,1.42,1.11,3.21,2.43,4.84,2.41,2.46,0,3.77-2.13,3.81-4.58,0.11-6.59.12-13.18,0.11-19.77C315.49,450.89,313.14,448.23,309,448.12Zm-24.23,71.93a42.24,42.24,0,0,1-42.24,41.7c-23.16-.12-42.21-19.36-42-42.37a42.25,42.25,0,0,1,42.8-41.85C266.11,477.64,285,497,284.73,520.06Z" transform="translate(173.5 -441.39)"/><path class="cls-1" d="M243.33,477.54a42.25,42.25,0,0,0-42.8,41.85c-0.26,23,18.79,42.25,42,42.37a42.24,42.24,0,0,0,42.24-41.7C285,497,266.11,477.64,243.33,477.54Zm-0.56,70a27.91,27.91,0,1,1,27.91-27.91A27.91,27.91,0,0,1,242.76,547.55Z" transform="translate(173.5 -441.39)"/><path class="cls-2" d="M677.52,572.33c0-17.43,0,8.31,0-8.71a13,13,0,0,1,11.4-13.06,13.26,13.26,0,0,1,14.79,10.12,12.59,12.59,0,0,1,.32,3c0,26,0,9.32,0,35.36,0,5.56-2.67,9.57-6.66,12.91a17.5,17.5,0,0,1-8.4,4.23c-7,1.12-13.45.19-18.62-5-2.19-2.21-3.46-5.17-5.1-7.81q-6.24-10-12.47-20.08-7.89-12.75-15.76-25.51-6.08-9.82-12.17-19.63-7.89-12.75-15.76-25.51c-4.07-6.58-8.15-13.15-12.6-19.66v1.85c0,35.53,0,74.29.05,109.83,0,5.61-5.26,11.46-11,12.17s-10.22-1.42-13.5-6.11a13.55,13.55,0,0,1-2-7.94c-0.06-44.31-.05-91.85,0-136.16,0-4.11,1.72-7.59,4.37-10.72a20,20,0,0,1,9.87-6.78c5.74-1.61,11.15-.36,16.32,2.36,3.61,1.9,5.38,5.36,7.39,8.6,4.52,7.3,9,14.63,13.49,21.93q9.76,15.84,19.55,31.66c4.36,7,8.77,14.07,13.14,21.12q9.75,15.74,19.46,31.51C674.8,568.17,676.07,570.07,677.52,572.33Z" transform="translate(173.5 -441.39)"/><path class="cls-3" d="M723.23,482.92a34.48,34.48,0,0,1-1.91,11.93,25.82,25.82,0,0,1-5.35,8.87,24.29,24.29,0,0,1-8.26,5.74A32.32,32.32,0,0,1,697,511.9l-0.54,18.43c0,0.76-.56,4.25-5.66,4.25s-5.89-3.84-5.89-4.25l-0.46-21.18a8.6,8.6,0,0,1,.27-2.87,4.61,4.61,0,0,1,1-1.83,3.54,3.54,0,0,1,1.76-1,10.11,10.11,0,0,1,2.45-.27h1.68a20.76,20.76,0,0,0,8.49-1.57,15.51,15.51,0,0,0,5.7-4.17,16.27,16.27,0,0,0,3.17-6.12,26.89,26.89,0,0,0,1-7.34,24.94,24.94,0,0,0-1.22-8,17.16,17.16,0,0,0-3.67-6.27,16.41,16.41,0,0,0-6.16-4.09,24,24,0,0,0-8.76-1.45,28.25,28.25,0,0,0-7.76,1,39.22,39.22,0,0,0-5.77,2.1c-1.63.76-6.07,3.47-8.49,0.12s2.56-8.39,4-9.18a30.9,30.9,0,0,1,5.28-2.18,55.5,55.5,0,0,1,6.81-1.68,42,42,0,0,1,7.69-.69A38.19,38.19,0,0,1,706,456a27.1,27.1,0,0,1,9.71,6.31,25,25,0,0,1,5.66,9.33A34.66,34.66,0,0,1,723.23,482.92Z" transform="translate(173.5 -441.39)"/><path class="cls-2" d="M868.53,616.89q-29.38,0-58.75,0c-9.07,0-16.6-3.15-22-10.63a25.59,25.59,0,0,1-4.68-15.41q0-59.44,0-118.87c0-15.23,10.73-25.88,26.06-25.92q59.32-.14,118.64,0c15.5,0,26.09,10.78,26.1,26.35q0.07,59.09,0,118.19c0,15.62-10.75,26.24-26.41,26.28C907.85,616.93,888.19,616.89,868.53,616.89ZM800.36,514.52c0,11.39,0,22.64,0,34H936.67c0-11.46,0-22.71,0-34m-136.5,51.21c0,8.44,0,16.63,0,24.82,0,6.13,3.13,9.23,9.26,9.25,7.66,0,15.33,0,23,0,0.58,0,1.16-.07,1.76-0.11v-34h-34Zm0-68.59h33.94v-34c-8.75,0-17.32-.08-25.89,0-4.61.06-7.91,3.12-8,7.64C800.1,479.53,800.23,488.25,800.23,497.13Zm102.62,68.6v34c8.88,0,17.59.13,26.31-.05,4.59-.09,7.58-3.46,7.67-8.22,0.1-5.08,0-10.17,0-15.25,0-3.47,0-6.93,0-10.5h-34Zm34-68.54c0-8.36,0-16.55,0-24.73,0-6.27-3.1-9.33-9.41-9.34-7.51,0-15,0-22.53,0h-2.1v34.07h34Zm-85.29,0h33.88V463.24H851.57v33.94Zm0.06,68.53v34h33.78v-34H851.63Z" transform="translate(173.5 -441.39)"/><path class="cls-2" d="M1010.53,464.5s0.48,0.82,1.25,2.37c0.42,0.76,1,1.6,1.57,2.54l1.1,1.5a17.67,17.67,0,0,0,1.25,1.6l0.69,0.83,0.77,0.83a21.9,21.9,0,0,0,1.66,1.67,43.79,43.79,0,0,0,3.95,3.28,57.24,57.24,0,0,0,10.17,5.93,93.9,93.9,0,0,0,12.87,4.75,136.91,136.91,0,0,0,15,3.44c5.27,0.9,10.74,1.64,16.37,2.08s11.36,0.69,17.12.69l2.21,0h1.87l0.49,0c1.33-.08,2.56,0,4-0.13q4.29-.18,8.5-0.53c5.62-.46,11.09-1.19,16.36-2.09a138.06,138.06,0,0,0,14.95-3.44,94.43,94.43,0,0,0,12.86-4.73,57.42,57.42,0,0,0,10.17-5.91,43.77,43.77,0,0,0,4-3.27,21.94,21.94,0,0,0,1.66-1.67c0.53-.55,1-1.1,1.47-1.65a17.68,17.68,0,0,0,1.26-1.6l1.1-1.5c0.59-1,1.16-1.84,1.58-2.57l1.26-2.33s0.41,0.82,1.06,2.5a32.92,32.92,0,0,1,.9,3.2,28.74,28.74,0,0,1,.56,4.55,36,36,0,0,1-1.74,12.65,50.82,50.82,0,0,1-7.76,14.9,70.58,70.58,0,0,1-13.83,13.87A89.54,89.54,0,0,1,1138.67,527a104.05,104.05,0,0,1-21.5,6.75c-1.87.38-3.76,0.71-5.66,1-0.95.14-1.9,0.3-2.85,0.41l-2.87.29c-1.86.21-4,.34-6,0.43l-0.77,0-0.65,0-1.26,0-2.84.06a119.38,119.38,0,0,1-22.92-2.3,103.92,103.92,0,0,1-21.49-6.76,89.73,89.73,0,0,1-18.47-10.82,70.66,70.66,0,0,1-13.83-13.86,50.85,50.85,0,0,1-7.77-14.88,36,36,0,0,1-1.75-12.64,28.65,28.65,0,0,1,.55-4.54,27.88,27.88,0,0,1,.89-3.23C1010.12,465.36,1010.53,464.5,1010.53,464.5Z" transform="translate(173.5 -441.39)"/><path class="cls-1" d="M1034.09,605.83V534.31s13.31,12.33,54.8,12.33h9.91c41.49,0,55.36-12.33,55.36-12.33V606c0,5.52-4.93,10-11,10h-97.86C1039.1,616,1034.09,611.45,1034.09,605.83Z" transform="translate(173.5 -441.39)"/><path class="cls-1" d="M1156.77,469.73V452.08a5.36,5.36,0,0,0-5.6-5.08h-38.65l-17.44,28h-1.65l-19.65-28h-37.31a5.28,5.28,0,0,0-5.28,5.28v17.44s12.67,14.77,62.79,14.77S1156.77,469.73,1156.77,469.73Z" transform="translate(173.5 -441.39)"/><path class="cls-1" d="M1245,615.35V569.68H1225V567c0-18.81.1-37.62,0-56.43-0.1-15.19,5.24-28.24,15.3-39.33,14.44-15.91,32.53-24.31,54-25.18,34.1-1.38,65.77,23.11,73.11,56.4,1.83,8.31,1.69,16.69,1.07,25.1a111.17,111.17,0,0,1-7.73,34.65c-8.69,21.06-23.84,35.65-44.65,44.54-14.25,6.08-29.23,8.79-44.64,9.56A157.2,157.2,0,0,1,1245,615.35Zm-0.33-122.82c0.54,0.28,1.07.58,1.62,0.83,15.81,7.14,31.6,14.3,47.45,21.36,1.75,0.78,2.4,1.64,2.39,3.6-0.08,20,0,40,0,59.93,0,0.86,0,1.71,0,2.56h8.56V520c7.42,3.07,14.58,5.9,21.64,9s14.12,6.42,21.17,9.64c12-25.23,4.43-59.48-25.71-74.08C1292,450.11,1257.27,463.31,1244.62,492.53Z" transform="translate(173.5 -441.39)"/><path class="cls-1" d="M1557.6,562.87v42.67a10.15,10.15,0,0,1-10.15,10.15H1421.07a11,11,0,0,1-11-11v-42a10.15,10.15,0,0,1,10.15-10.15h53v-3c0-12.77,0-25.53,0-38.3,0-1.94-.41-3-2.38-3.85-13.15-5.91-20.24-18.87-18.45-33.26,1.66-13.35,12.41-24.33,26.22-26.77,15.15-2.68,30.33,6.61,35.27,21.59a31.28,31.28,0,0,1-16,37.79c-2.88,1.37-3.74,2.9-3.69,6,0.2,12.07.08,24.14,0.08,36.21v3.42h52.85A10.4,10.4,0,0,1,1557.6,562.87Zm-105.48,21.47a10.55,10.55,0,1,0-10.7,10.47A10.58,10.58,0,0,0,1452.12,584.34Z" transform="translate(173.5 -441.39)"/><rect class="cls-1" x="1793.78" y="129.24" width="36.67" height="18.16" rx="3.43" ry="3.43"/><rect class="cls-1" x="1885.9" y="129.18" width="36.61" height="18.26" rx="3.43" ry="3.43"/><rect class="cls-1" x="1839.88" y="74.02" width="36.58" height="18.2" rx="3.43" ry="3.43"/><rect class="cls-1" x="1839.87" y="129.22" width="36.58" height="18.2" rx="3.43" ry="3.43"/><rect class="cls-1" x="1885.89" y="101.63" width="36.61" height="18.23" rx="3.43" ry="3.43"/><rect class="cls-1" x="1793.82" y="156.91" width="36.68" height="18.16" rx="3.43" ry="3.43"/><rect class="cls-1" x="1885.89" y="156.9" width="36.66" height="18.18" rx="3.43" ry="3.43"/><rect class="cls-1" x="1839.88" y="101.67" width="36.54" height="18.21" rx="3.43" ry="3.43"/><rect class="cls-1" x="1839.82" y="156.94" width="36.6" height="18.16" rx="3.43" ry="3.43"/><path class="cls-1" d="M1745.27,446.52h-121.2c-3.56,0-5.15,4.12-2.37,6.18l62.79,36.3,63.15-36.29C1750.42,450.66,1748.84,446.52,1745.27,446.52Z" transform="translate(173.5 -441.39)"/><path class="cls-1" d="M1878.62,618.16c0,2.45,0,4.95,0,7.44a4,4,0,0,1-2.7,4.06,3.79,3.79,0,0,1-5.06-3.66c-0.06-2.57,0-5.14,0-7.87-2.7-.41-5.32-0.67-7.88-1.2-13.1-2.72-23.08-10.11-30.56-21a72.18,72.18,0,0,1-12.59-38.59c-0.19-4.47.55-5.25,4.93-6a22.12,22.12,0,0,0,13-7.41c3.11-3.48,2.7-7.5,1.3-11.42s-4.91-4.39-8.36-4.83c-1.1-.14-2.23,0-3.34-0.16a3.81,3.81,0,0,1-3.62-3.68c-0.49-11.86,2.25-22.83,9.51-32.39,6.89-9.08,16.34-13.59,27.49-14.88l2.22-.23V445.71h23.48v30.66c1.56,0.33,3,.57,4.37.93,12.5,3.18,21.25,11.23,27.86,21.87,4.45,7.15,7.34,14.84,7.08,23.45-0.1,3.51-1.41,4.82-4.94,5.06a32.87,32.87,0,0,0-6.39.85,8.57,8.57,0,0,0-4.83,12.93,22.43,22.43,0,0,0,16,10c2.61,0.33,4.07,1.61,4,4.16-0.66,19.82-6.88,37.29-22.05,50.77-7.62,6.77-16.76,10.31-26.89,11.3-0.42,0-.83.08-1.24,0.16A4.07,4.07,0,0,0,1878.62,618.16ZM1863,547.36q0,22.89,0,45.78c0,0.56,0,1.12,0,1.67a3.77,3.77,0,0,0,3.41,3.61,3.67,3.67,0,0,0,4.19-2.93,12.65,12.65,0,0,0,.26-2.9q0-45,0-90.09a13.5,13.5,0,0,0-.29-3.1,3.5,3.5,0,0,0-3.25-2.79c-2.54-.31-4.32,1.47-4.33,4.35Q1862.94,524.16,1863,547.36Zm15.69,0.18q0,22.8,0,45.61a16.2,16.2,0,0,0,0,1.88,3.72,3.72,0,0,0,3.61,3.41,3.8,3.8,0,0,0,4.05-3.16,14.61,14.61,0,0,0,.11-2.5q0-45.19,0-90.37a18.28,18.28,0,0,0-.09-2.51,3.88,3.88,0,0,0-3.92-3.35,3.82,3.82,0,0,0-3.76,3.51,18.7,18.7,0,0,0,0,1.88Q1878.64,524.74,1878.64,547.54Z" transform="translate(173.5 -441.39)"/><path class="cls-1" d="M1998.83,521.65a45.21,45.21,0,0,0,10.43,10.51,67.21,67.21,0,0,0,26.21,11.27c19.66,4.06,38.9,2.95,57.4-5.37,8.12-3.65,15.14-8.79,20.35-16.15a3.12,3.12,0,0,1,.41-0.37,47.75,47.75,0,0,1,8,26.81c0,6.69,0,21,0,27.66v1s-130.82.37-130.82,0.24-0.19-23.89.09-32a46,46,0,0,1,7.4-22.95A7.19,7.19,0,0,1,1998.83,521.65Z" transform="translate(173.5 -441.39)"/><path class="cls-1" d="M2019.86,501.45c9.55-1,17-5,22.47-12.56s6.75-15.87,4.64-25a90.38,90.38,0,0,1,18.3,0c-2.13,9.07-.78,17.49,4.64,25s12.92,11.6,22.68,12.58a53,53,0,0,1-3.87,5.13c-4.43,4.58-10,7.23-16.06,8.9-13.67,3.78-27.1,3.21-40.13-2.66a26.22,26.22,0,0,1-11-8.58C2021,503.45,2020.52,502.55,2019.86,501.45Z" transform="translate(173.5 -441.39)"/><path class="cls-1" d="M2017.94,447a24.52,24.52,0,1,1-24.51,24.46A24.61,24.61,0,0,1,2017.94,447Zm0.09,32.7a8.24,8.24,0,0,0,8.1-8.2,8.18,8.18,0,0,0-16.37,0A8.28,8.28,0,0,0,2018,479.7Z" transform="translate(173.5 -441.39)"/><path class="cls-1" d="M2094.31,447a24.52,24.52,0,1,1-24.56,24.26A24.53,24.53,0,0,1,2094.31,447Zm0,16.38a8.06,8.06,0,0,0-8.2,8.15A8.16,8.16,0,1,0,2094.34,463.38Z" transform="translate(173.5 -441.39)"/><path class="cls-1" d="M1999.35,498a27.79,27.79,0,0,0,12.15,5.69c2,0.34,2.81,1.23,3.53,3,2,5,5.82,8.61,10.29,11.5a51,51,0,0,0,21.34,7.43,65.56,65.56,0,0,0,30.65-2.81c6.49-2.27,12.44-5.47,16.76-11,1.55-2,2.52-4.42,3.79-6.63a2.09,2.09,0,0,1,.94-1.07,31.24,31.24,0,0,0,14.09-6.15,18.29,18.29,0,0,1-.12,8.87c-1.54,6.44-5.32,11.44-10.27,15.62-8.4,7.08-18.3,10.94-28.93,13a87,87,0,0,1-45.25-2.79c-8.45-2.88-16.14-7.06-22.21-13.77-4.68-5.17-7.5-11.13-7.14-18.29a9.73,9.73,0,0,1,.08-1C1999.11,499.16,1999.22,498.68,1999.35,498Z" transform="translate(173.5 -441.39)"/><path class="cls-1" d="M2164.27,143.28h130.89a0,0,0,0,1,0,0v24a8,8,0,0,1-8,8H2172.3a8,8,0,0,1-8-8v-24A0,0,0,0,1,2164.27,143.28Z"/><path class="cls-1" d="M2172,582v35h126.17A12.83,12.83,0,0,0,2311,604.17V582H2172Z" transform="translate(173.5 -441.39)"/><polygon class="cls-1" points="2415.5 105.61 2380.5 105.61 2380.5 140.61 2484.5 140.61 2484.5 105.61 2415.5 105.61 2415.5 105.61"/><polygon class="cls-1" points="2449.5 70.61 2415.5 70.61 2415.5 105.61 2484.5 105.61 2484.5 70.61 2449.5 70.61 2449.5 70.61"/><polygon class="cls-1" points="2415.5 105.61 2484.5 105.61 2484.5 105.61 2415.5 105.61 2415.5 105.61"/><rect class="cls-1" x="2449.5" y="35.61" width="35" height="35"/><polygon class="cls-1" points="2449.5 70.61 2484.5 70.61 2484.5 70.61 2449.5 70.61 2449.5 70.61"/><polygon class="cls-1" points="2360.75 104 2365.4 113.42 2375.79 114.93 2368.27 122.26 2370.04 132.61 2360.75 127.72 2351.45 132.61 2353.23 122.26 2345.71 114.93 2356.1 113.42 2360.75 104"/><polygon class="cls-1" points="2395.75 69 2400.4 78.42 2410.79 79.93 2403.27 87.26 2405.04 97.61 2395.75 92.72 2386.45 97.61 2388.23 87.26 2380.71 79.93 2391.1 78.42 2395.75 69"/><polygon class="cls-1" points="2429.75 34 2434.4 43.42 2444.79 44.93 2437.27 52.26 2439.04 62.61 2429.75 57.72 2420.45 62.61 2422.23 52.26 2414.71 44.93 2425.1 43.42 2429.75 34"/><polygon class="cls-1" points="2464.75 0 2469.4 9.42 2479.79 10.93 2472.27 18.26 2474.04 28.61 2464.75 23.72 2455.45 28.61 2457.23 18.26 2449.71 10.93 2460.1 9.42 2464.75 0"/><path class="cls-4" d="M2473.92,496.45a8.34,8.34,0,1,0,8,8.39A8.12,8.12,0,0,0,2473.92,496.45Z" transform="translate(173.5 -441.39)"/><path class="cls-1" d="M2373,602.33c18.27,12,38.62,15.7,61.23,10.31,24.68-5.88,42.25-21.21,53.71-43.66a9.32,9.32,0,0,0,.45-1.18s-40,25.1-73.83,6.15c-22.47-12.6-28.32-50.94-28.32-50.94H2373v79.33Z" transform="translate(173.5 -441.39)"/><path class="cls-1" d="M2498.39,493.61c-6.28-15.83-16.85-28.23-30-38.73-1.33-1.07-3.12-2-4-3.15v22.46a25.68,25.68,0,0,1-2.08-2.23c-15.8-18.19-35.55-27.72-60-25.68a71.62,71.62,0,0,0-29.27,8.85v68.27c4.29,4.62,46.69,29.91,65,40.71a2.39,2.39,0,0,0,3.25-3.32l-17.33-28.12c6,2.82,12,5.78,18.08,8.43,11.67,5.08,23.58,9.44,36.36,10.81,4.48,0.48,9,.61,13.31-0.92,1.26-.45,2.83-1.25,3.38-2.34C2504,530.81,2505.85,512.45,2498.39,493.61Zm-24.6,19.51a8.34,8.34,0,1,1,8.09-8.28A8.2,8.2,0,0,1,2473.78,513.12Z" transform="translate(173.5 -441.39)"/><path class="cls-1" d="M2373,528.58v0Z" transform="translate(173.5 -441.39)"/><path class="cls-1" d="M2615.67,590.71c0,4.1,0,7.92,0,11.74,0,2,0,4,0,6-0.07,4.07-2.56,6.86-6.12,6.9s-6.14-2.74-6.21-6.8c0-3.28,0-6.57,0-9.85,0-2.55,0-5.11,0-8h-2.73q-17.06,0-34.11,0c-10.68,0-16.51-5.85-16.51-16.47,0-37.8.1-75.6-.07-113.4,0-9.74,7-16.27,16.17-16.19,29.07,0.27,58.14.1,87.21,0.1,9.65,0,15.73,6.07,15.73,15.74q0,57.18,0,114.36c0,9.67-6,15.77-15.69,15.84-11.61.09-23.22,0-34.84,0h-2.83Zm-47.51-84.9c0,13.85,0,27.7,0,41.55,0,2,.44,3.83,2.27,4.67a11.51,11.51,0,0,0,4.63.83c16,0.06,32,0,48,0,7.29,0,14.57,0,21.86,0,4.33,0,5.9-1.72,5.9-6q0-41.19,0-82.38c0-4.05-1.59-5.62-5.68-5.62h-71.33c-4.08,0-5.65,1.58-5.65,5.65Q2568.16,485.15,2568.17,505.81Zm64.26,58.38c-3.92,0-7.84.06-11.76,0-2.12,0-3.18.86-3.2,2.93q-0.05,4.56,0,9.12c0,2,1.07,2.88,3,2.87q11.89,0,23.77,0c2,0,2.94-1,2.95-3,0-3,0-5.92,0-8.88,0-2.24-1.08-3.13-3.28-3.08C2640.11,564.25,2636.27,564.19,2632.43,564.19Zm-45.89,14.9c3.92,0,7.84,0,11.77,0,2.22,0,3.26-1,3.26-3.17,0-3,0-5.92,0-8.88,0-1.91-1-2.9-3-2.88q-11.89.07-23.77,0c-2,0-3,.91-3,2.88,0,3,0,5.92,0,8.88,0,2.21,1,3.19,3.24,3.16C2578.86,579.05,2582.7,579.09,2586.54,579.09Z" transform="translate(173.5 -441.39)"/><path class="cls-1" d="M2609.52,481.32c5.73,9.89,11.46,19.15,14.7,29.62,1.93,6.24-.06,11.63-5,15.7a15.31,15.31,0,0,1-25.05-12.29,21.71,21.71,0,0,1,1.7-6.69C2599.36,498.51,2604.3,490.14,2609.52,481.32Z" transform="translate(173.5 -441.39)"/><path class="cls-1" d="M2753.77,446.78c5.75,0.1,13.14,3,19.45,8.57a3.08,3.08,0,0,0,3.82.54c19.45-8.09,38.89-8.09,58.33.18a4,4,0,0,0,3.41-.62c11-9.17,23.34-11.33,36.34-5.63,13.27,5.83,20.28,16.71,20.39,31.2,0.09,12.37-5.62,22.09-16.08,28.87-1.3.84-2.36,1.35-2.17,3.5,2.53,28.78-8.31,51.38-31.95,67.83a8.15,8.15,0,0,0-3.79,5.52,36.06,36.06,0,0,1-35.57,28.61,36.72,36.72,0,0,1-35.55-29.62,6.61,6.61,0,0,0-2.47-3.86c-23.83-16.19-35.11-38.51-33-67.35,0.18-2.45-.37-3.83-2.57-5.19a33.73,33.73,0,0,1-14.18-38.82C2722.58,456.32,2736.6,446.19,2753.77,446.78ZM2806,498.26c-1.73-1.94-3.14-3.58-4.61-5.16-5.92-6.35-13.25-9.61-21.92-9.2-14.5.69-25.43,11.61-26.44,26.07-0.92,13.23,9.17,26,22.8,28.55,2.17,0.41,2.85,1.19,2.83,3.4-0.11,11.93,0,23.87-.12,35.81,0,2.65.9,3.83,3.28,4.74,16.46,6.33,32.82,5.91,49.2-.26,2-.75,2.26-2,2.25-3.83-0.05-11.83,0-23.66,0-35.5,0-1.12,0-2.24,0-3.44,15.42-3,24.54-11.82,25.5-27.58,0.67-10.87-6.46-21.46-16.93-25.63C2826.92,480.3,2815.49,485.88,2806,498.26Zm68.14,0.56c6.91-5.48,10.09-12.38,8.85-20.87-1.3-8.84-6.39-15-14.91-17.85-7.1-2.4-13.74-1.21-19.92,3.29C2861.88,474.78,2867.58,482.61,2874.18,498.82Zm-137-.71c3.72-6.48,6.84-13.21,11.16-19.06s9.78-10.74,14.73-16.05c-8.78-7.2-23-5.07-30.26,4.82C2725.62,477.51,2727.88,491.95,2737.16,498.11Zm44,90.7c1.49,9.13,13.52,17.57,24.67,17.64s23.36-8.29,25-17.61C2814.25,594.34,2797.72,594.63,2781.13,588.81Z" transform="translate(173.5 -441.39)"/><path class="cls-1" d="M2778.7,524.36a12,12,0,1,1,.13-24.09A12,12,0,1,1,2778.7,524.36Zm0-18.12a6.12,6.12,0,0,0-6,6.24,6,6,0,0,0,6,5.83,6.12,6.12,0,0,0,6-6.19A6.23,6.23,0,0,0,2778.68,506.24Z" transform="translate(173.5 -441.39)"/><path class="cls-1" d="M2833.2,524.36a12,12,0,1,1,0-24.09A12,12,0,1,1,2833.2,524.36Zm6.08-12.07a6.11,6.11,0,0,0-6.2-6,6.23,6.23,0,0,0-5.88,6.07,6.13,6.13,0,0,0,6.23,6A6,6,0,0,0,2839.28,512.29Z" transform="translate(173.5 -441.39)"/><path class="cls-1" d="M2803,541.26a5.92,5.92,0,0,1-5.77,6.05,6,6,0,0,1-.33-12.05A5.87,5.87,0,0,1,2803,541.26Z" transform="translate(173.5 -441.39)"/><path class="cls-1" d="M2809,541.39a5.88,5.88,0,0,1,5.95-6.14,6.21,6.21,0,0,1,6,5.94,6.06,6.06,0,0,1-6.06,6.12A5.91,5.91,0,0,1,2809,541.39Z" transform="translate(173.5 -441.39)"/><path class="cls-1" d="M3239.72,522.55a6.88,6.88,0,0,1-.64-0.7,40.17,40.17,0,0,0-13.36-12.46,80.91,80.91,0,0,0-49.27-11.19c-7.37.62-14.51,2.38-20.92,6.32-7.28,4.47-11.74,10.66-11.13,19.55,0.42,6.15,3.59,11.12,7.78,15.43,7.45,7.68,16.73,12.25,26.79,15.42,0.92,0.29,1.86.51,3,.82a30.19,30.19,0,0,1,19-39.46,28.54,28.54,0,0,1,22.87,1.89c10.14,5.41,15.42,14.12,16.57,25.71a16.07,16.07,0,0,0,3.3-4.36q12.72-29.36,25.28-58.78,6.2-14.44,12.39-28.88c1.7-4-1.11-7.71-5.39-7.16-2.23.29-3.39,1.81-4.22,3.74q-12.64,29.29-25.32,58.56Zm-29.77,52c-4.54,0-9.08,0-13.63,0-1.77,0-3.17.6-3.73,2.38a3.33,3.33,0,0,0,1.69,4.07,19.08,19.08,0,0,1,7.17,8.29c3.3,6.69,4.67,13.88,5.45,21.23a3.61,3.61,0,0,0,4.94,3.57c1.62-.44,2.19-2,2.31-3.63a62.69,62.69,0,0,1,3.45-16.65c1.69-4.68,3.82-9.09,8-12.09a3.93,3.93,0,0,0,1.73-4.62c-0.6-2-2.07-2.57-4-2.56C3218.91,574.57,3214.43,574.55,3210,574.55Z" transform="translate(173.5 -441.39)"/><path class="cls-1" d="M3232,544.82c0-12.1-9.83-22.29-21.63-22.34-12.76-.05-22.86,9.75-22.88,22.19A22.25,22.25,0,0,0,3232,544.82Z" transform="translate(173.5 -441.39)"/><path class="cls-1" d="M3057.62,560.93c-0.27-2.34-.49-4.54-0.77-6.73-0.88-7.1-3.63-13.6-6.43-20.09a3.49,3.49,0,0,1-.22-2.51c3.81-8,6.59-16.36,7.22-25.3a13.37,13.37,0,0,1,.38-1.52c5.56,1.26,11.16,2.18,16.53,3.83,11.52,3.55,20.68,10.64,28,20.06,3.88,5,3.47,4.3.21,8.51-10.72,13.86-25,21.46-42.29,23.42Z" transform="translate(173.5 -441.39)"/><path class="cls-1" d="M2988.67,559.56c-18.56-1.41-33.65-9.26-45.09-24-2.73-3.52-2.76-3.73-.11-7.25,10.72-14.22,25.06-22,42.64-24.05,0.83-.1,1.66-0.22,2.77-0.37,0.31,2.55.57,5,.91,7.48,0.95,6.84,3.58,13.13,6.34,19.38a3.24,3.24,0,0,1,.37,2.1c-1.63,4.38-3.68,8.62-5,13.08S2989.61,554.89,2988.67,559.56Z" transform="translate(173.5 -441.39)"/><path class="cls-1" d="M3051.43,566.63c-1.79,16.33-7.49,30.34-19.73,41.21-2.06,1.83-4.34,3.41-6.45,5.19a2.66,2.66,0,0,1-3.7,0c-7.15-5.21-13.39-11.28-17.67-19.12a65.72,65.72,0,0,1-8.2-25.91,10.1,10.1,0,0,1,.05-1.23c2.36-.27,4.63-0.53,6.9-0.8,6.41-.78,12.29-3.27,18.08-5.91A5.56,5.56,0,0,1,3026,560,60,60,0,0,0,3051.43,566.63Z" transform="translate(173.5 -441.39)"/><path class="cls-1" d="M2995.29,497.72a62.16,62.16,0,0,1,4.86-20.17,58.6,58.6,0,0,1,19.52-24.88c3.19-2.42,3.52-2.35,6.73,0,14.72,10.9,22.24,25.8,24.45,43.71,0.19,1.54-.71,1.72-1.74,1.75-7,.16-13.58,2.33-20,4.84a0.92,0.92,0,0,0-.22.08c-3.73,2.75-7.29,2.41-11.4.31a48.67,48.67,0,0,0-20.61-5.24A7.89,7.89,0,0,1,2995.29,497.72Z" transform="translate(173.5 -441.39)"/><path class="cls-1" d="M3042.48,532.83a17.44,17.44,0,0,1-.9,1.62,65.66,65.66,0,0,1-16.69,16.66,2.16,2.16,0,0,1-2.87,0,62.21,62.21,0,0,1-16.76-16.89,2.93,2.93,0,0,1-.07-2.56A52.1,52.1,0,0,1,3022,514.19a3.2,3.2,0,0,1,2.82-.13,54.08,54.08,0,0,1,17.16,17.71C3042.13,532.09,3042.28,532.44,3042.48,532.83Z" transform="translate(173.5 -441.39)"/><path class="cls-1" d="M3046.35,525.77l-16.25-16.22a60.58,60.58,0,0,1,21.41-5.31C3051.27,512,3049,519,3046.35,525.77Z" transform="translate(173.5 -441.39)"/><path class="cls-1" d="M3000.19,539.05l16.09,16.21a62.73,62.73,0,0,1-21.26,5.3C2995.29,552.76,2997.48,545.78,3000.19,539.05Z" transform="translate(173.5 -441.39)"/><path class="cls-1" d="M3000.57,525.41a61.54,61.54,0,0,1-5.18-21.27,61,61,0,0,1,21.28,5.14Z" transform="translate(173.5 -441.39)"/><path class="cls-1" d="M3029.87,555.56L3046,539.43c2.64,6.5,4.85,13.44,5.15,21.27C3043.49,560.36,3036.55,558.26,3029.87,555.56Z" transform="translate(173.5 -441.39)"/><path class="cls-1" d="M3392,474.21c0.15-.89.28-1.79,0.46-2.67a30.43,30.43,0,0,1,26.81-24,30.06,30.06,0,0,1,32.43,26.68,28.69,28.69,0,0,1-8.59,24.26Q3418,523.83,3392.66,549c-0.22.22-.45,0.42-0.78,0.72-0.37-.35-0.72-0.66-1.05-1q-25-25-49.9-49.91c-11.94-12-12.23-30.51-.44-42.26,8.14-8.12,18.07-11.12,29.24-8s18.19,10.8,21.31,22c0.33,1.19.48,2.43,0.72,3.65Z" transform="translate(173.5 -441.39)"/><polygon class="cls-1" points="3618.5 101.43 3546.6 174.61 3561.42 174.61 3618.5 116.54 3618.5 101.43"/><path class="cls-1" d="M3445,512.67l-53,53.92-53-53.92v72.39a31,31,0,0,0,21.63,29.68l84.37-86.2V512.67Z" transform="translate(173.5 -441.39)"/><path class="cls-1" d="M3401.93,616h12A31,31,0,0,0,3445,585.06V572.21Z" transform="translate(173.5 -441.39)"/><polygon class="cls-5" points="3628.95 90.78 3621.81 83.78 3618.5 87.15 3618.5 101.43 3628.95 90.78"/><path class="cls-5" d="M3360.48,614.66l-19.38,19.8,7.14,6.95L3373.1,616h-3.33A31,31,0,0,1,3360.48,614.66Z" transform="translate(173.5 -441.39)"/><polygon class="cls-5" points="3534.59 202.04 3541.73 209 3575.42 174.61 3561.42 174.61 3534.59 202.04"/><line class="cls-5" x1="3502" y1="84.38" x2="3553" y2="138.02"/><path class="cls-1" d="M3560.61,525q0,18,0,36c0,2,0,4-.08,6a7.06,7.06,0,0,1-13.91,1.08,3.14,3.14,0,0,0-.29-1.08h-2c-2.76,0-5.53-.16-8.29-0.23a3.65,3.65,0,0,1-3.72-3.77,3.6,3.6,0,0,1,3.77-3.46q0.75,0,1.51,0c4.08,0,8.16,0,12.24,0a3.38,3.38,0,0,0,3.58-3.34,3.45,3.45,0,0,0-3.22-3.71,11.52,11.52,0,0,0-1.5,0c-4.27,0-8.54,0-12.81,0a3.43,3.43,0,0,1-3.56-3.38,3.52,3.52,0,0,1,3.38-3.57,16.36,16.36,0,0,1,1.69,0c4,0,8,0,12.05,0,2.47,0,3.88-1.26,4-3.33,0.09-2.22-1.34-3.66-3.78-3.68-4.39,0-8.79,0-13.18,0-2.38,0-3.95-1.29-4.13-3.26-0.19-2.15,1.45-3.8,3.91-3.82,4.46,0,8.91,0,13.37,0,2.56,0,4.08-1.69,3.79-4.06-0.22-1.82-1.68-3-3.92-3-4.46,0-8.91,0-13.37,0a3.5,3.5,0,1,1-.26-7c0.56,0,1.13,0,1.69,0,4.08,0,8.16,0,12.24,0a3.37,3.37,0,0,0,3.64-3.65c-0.06-2-1.23-3.29-3.52-3.35-1,0-1.95,0-2.95,0v-2.42c0-13.75-.21-27.49-0.23-41.24a40.38,40.38,0,0,0-.36-4.32,17.48,17.48,0,0,0-16.88-15.58c-14.25-.14-28.53-0.05-42.78,0-2.45,0-3.77,1.45-3.78,3.93a17.23,17.23,0,0,0,13.68,16.69c3.47,0.65,7.11.41,10.68,0.52a10.89,10.89,0,0,1,8.9,4.47c1.79,2.4,2.08,5.18,2.08,8q0,48.49,0,97a38.78,38.78,0,0,0,27,37.06c6.23,2,12.61,1.83,19,1.82a38.79,38.79,0,0,0,38.57-37.48c0.22-8.78.16-17.56,0.14-26.34C3581.28,545.32,3567.91,533.52,3560.61,525Z" transform="translate(173.5 -441.39)"/><path class="cls-1" d="M3612.21,538.28a19.12,19.12,0,0,0-.69-10.21c-3.75-11.5-11.27-20.13-20.92-27.06a38.26,38.26,0,0,0-17.72-7.3c-8.81-1.1-14.95,4.16-14.68,13a30.42,30.42,0,0,0,1.11,6.27c2.79,4.67,16.07,24.37,46.16,33.65A11.1,11.1,0,0,0,3612.21,538.28Z" transform="translate(173.5 -441.39)"/><path class="cls-5" d="M3603,549.14c0,1,0,2,0,3,1.36,0.43,2.74.84,4.16,1.23l1.57-5.79q-1.69-.46-3.32-1c-0.31.13-.61,0.27-0.95,0.37A1.82,1.82,0,0,0,3603,549.14Z" transform="translate(173.5 -441.39)"/><path class="cls-5" d="M3559.89,515.53c-0.17-.85-0.37-1.7-0.58-2.54-0.37-.62-0.57-1-0.58-1l-5.35,2.71a56.83,56.83,0,0,0,7.24,10.3c0-1.81,0-3.62,0-5.43A21.66,21.66,0,0,0,3559.89,515.53Z" transform="translate(173.5 -441.39)"/><path class="cls-1" d="M3763.8,446.43v15.68c-5.15,0-10.17.06-15.19,0a6.93,6.93,0,0,0-4.52,1.39c-6.21,4.53-6.46,10-.45,15.19a26.8,26.8,0,0,0,5.91,4,22.12,22.12,0,0,1,11.76,13c2.56,6.81,2.9,13.78,2.72,20.8-0.27,10.64-4.52,20.69-7.66,30.93-4.94,16.12-9.26,32.35-13.84,48.53-0.14.48-.28,1-0.43,1.46h-34.76c-0.86-3.3-1.71-6.58-2.57-9.86-4.53-17.22-9.39-34.38-15.46-51.34-4.52-12.62-5.54-25.5-1.82-38.39a37.46,37.46,0,0,1,4-8.31c1.47-2.49,4.12-4.29,7-6a45.8,45.8,0,0,0,8.41-5.91c5.24-5,4.29-10.41-2.19-14.5a7.14,7.14,0,0,0-3.36-.92c-4.36-.11-8.74,0-13.11,0h-2.53V446.43h78.11Z" transform="translate(173.5 -441.39)"/><polyline class="cls-6" points="3945.46 100.89 3928.43 167.61 3867.69 167.61 3850.66 101.03"/><path class="cls-1" d="M-79.54,554.34c0-15.23,0-30.1,0-45a11.36,11.36,0,0,1,10-11.41,11.58,11.58,0,0,1,12.93,8.84,11,11,0,0,1,.28,2.61c0,22.75,0,45.51,0,68.26,0,4.86-2.33,8.37-5.82,11.28a15.3,15.3,0,0,1-7.34,3.7c-6.08,1-11.75.17-16.27-4.4-1.91-1.93-3-4.51-4.46-6.82q-5.45-8.77-10.9-17.54-6.9-11.14-13.77-22.29-5.31-8.58-10.64-17.15l-13.78-22.29c-3.56-5.75-7.12-11.49-11-17.18v1.61c0,31.05,0,64.92,0,96,0,4.91-4.6,10-9.64,10.63s-8.93-1.24-11.79-5.34a11.84,11.84,0,0,1-1.75-6.94c-0.05-38.72,0-80.26,0-119a14.31,14.31,0,0,1,3.82-9.37,17.48,17.48,0,0,1,8.62-5.92c5-1.4,9.74-.32,14.26,2.06,3.16,1.66,4.7,4.68,6.45,7.52,3.95,6.38,7.85,12.78,11.79,19.17Q-120,489.21-111.45,503c3.81,6.16,7.67,12.29,11.48,18.45q8.52,13.76,17,27.53C-81.92,550.71-80.81,552.37-79.54,554.34Z" transform="translate(173.5 -441.39)"/><path class="cls-1" d="M3854.3,546.86a19.07,19.07,0,0,0,12.21-1.91,17.7,17.7,0,0,0,4-27.92c-1.3-1.29-2.41-2.57-1.85-4.51s2.06-2.33,3.76-2.74a17.62,17.62,0,0,0,12.89-22.36c-0.48-1.69-.9-3.51.71-4.5a6.21,6.21,0,0,1,4.29-.67c7.67,1.85,15.09-.68,19.47-6.92a17.74,17.74,0,0,0-.29-20.63c-0.27-.38-0.52-0.78-0.79-1.2,23.66-9.1,59.32-6.26,85.26,19.62a82.67,82.67,0,0,1-70.61,140.07C3884.92,607.49,3859.56,577.42,3854.3,546.86Zm81,19.82c19.13,0,35.16-15.74,35.33-34.76a35.44,35.44,0,0,0-35.16-35.71c-19.48-.26-35.34,15.73-35.36,35.67C3900.12,550.88,3916.07,566.65,3935.34,566.69Z" transform="translate(173.5 -441.39)"/><path class="cls-1" d="M3846.69,490v-1q0-8.76,0-17.53c0-2,.73-2.84,2.65-3.21l24.25-4.65a2.69,2.69,0,0,1,3.4,2.78c0,8.81,0,17.63,0,26.44a8.24,8.24,0,1,1-6.1-7.84l0.73,0.2V469.47L3852,473.23v0.9q0,11.73,0,23.47a8.24,8.24,0,1,1-6-7.76Z" transform="translate(173.5 -441.39)"/><path class="cls-1" d="M4129.86,467l0.38-.91,6.71-16.19c0.76-1.82,1.76-2.35,3.68-2l24.19,5a2.69,2.69,0,0,1,2.08,3.87q-5,12.22-10.12,24.42a8.24,8.24,0,1,1-2.63-9.58l0.6,0.46,6-14.55-19.53-4-0.35.84q-4.49,10.84-9,21.68a8.24,8.24,0,1,1-2.6-9.48Z" transform="translate(173.5 -441.39)"/><path class="cls-1" d="M4173.23,529.23L4155,513.77l-40.3,100.52H4257.5L4213,503.42l-14.91,16.42c-2.88-1.38-5.75-2.65-8.51-4.13-1.36-.73-2.13-0.4-3.14.61C4182.13,520.66,4177.68,524.91,4173.23,529.23Zm22.45-20.88c4-4.41,7.91-8.79,11.93-13.07a2.74,2.74,0,0,0,.67-3.39c-5.22-12.83-10.36-25.7-15.53-38.55-1.4-3.48-3.74-5.21-6.87-5.19s-5.43,1.77-6.82,5.25l-12.37,30.79c-2.72,6.77-5.42,13.54-8.16,20.39l14.83,12.6c3.74-4.09,7.42-8,11-12.08a2.43,2.43,0,0,1,3.49-.56C4190.39,505.9,4193,507.06,4195.68,508.35Z" transform="translate(173.5 -441.39)"/><path class="cls-1" d="M4173.23,529.23c4.45-4.32,8.9-8.57,13.25-12.91,1-1,1.78-1.34,3.14-.61,2.76,1.47,5.63,2.75,8.51,4.13L4213,503.42l44.46,110.87H4114.73L4155,513.77Z" transform="translate(173.5 -441.39)"/><path class="cls-1" d="M4195.68,508.35c-2.68-1.29-5.3-2.45-7.81-3.82a2.43,2.43,0,0,0-3.49.56c-3.59,4-7.27,8-11,12.08l-14.83-12.6c2.74-6.85,5.45-13.62,8.16-20.39l12.37-30.79c1.4-3.48,3.66-5.22,6.82-5.25s5.47,1.71,6.87,5.19c5.18,12.85,10.31,25.72,15.53,38.55a2.74,2.74,0,0,1-.67,3.39C4203.6,499.56,4199.69,503.94,4195.68,508.35Z" transform="translate(173.5 -441.39)"/><polyline class="cls-7" points="8.5 165.61 38.5 165.61 38.5 98.72 92.16 187.36 104.16 164.61 112.5 164.61"/><path class="cls-4" d="M4453.57,456.9a17.34,17.34,0,0,0-6.36-1.37c-15.39-.11-30.78-0.07-46.17,0a17.62,17.62,0,0,0-3.94.41c-4.07.95-6.08,3.55-6.08,7.68,0,6.37,0,12.74,0,19.11a6.28,6.28,0,0,0,4,6.3,14.23,14.23,0,0,0,5.27,1.19c7.94,0.12,15.89.05,23.84,0.05s16.15,0,24.22,0c6,0,9-3.05,9-8.91,0-6.12,0-12.24,0-18.35C4457.3,460.1,4456.08,457.94,4453.57,456.9Z" transform="translate(173.5 -441.39)"/><path class="cls-1" d="M4390.15,611.66c-39.09.55-72.33-32.19-72.74-71.66a72.94,72.94,0,0,1,71.92-73.56c39.89-.55,72.91,31.93,73.3,72.1S4430.9,611.08,4390.15,611.66Zm12.62-81.56A17.06,17.06,0,0,0,4420.4,547c9.12-.24,16.72-8.1,16.23-16.88h-33.87Zm-59.11,0c0.41,10.2,8.84,17.74,18.5,16.91,9-.77,16.31-8.86,15.31-16.91h-33.8Z" transform="translate(173.5 -441.39)"/><path class="cls-1" d="M4462.75,445.63c1,5.07.46,9.16-4.29,12.07-2.83,1.74-5.12,4.35-8.21,7.06h12.52v9.86h-25.64c0-3.09-.14-6.11.09-9.11,0.07-.88,1.08-1.82,1.86-2.49,3.35-2.91,6.77-5.73,10.87-9.17h-12.61v-8.21h25.42Z" transform="translate(173.5 -441.39)"/></svg>