<svg id="Layer_1" data-name="Layer 1" xmlns="http://www.w3.org/2000/svg" viewBox="0 0 147.49 168.69"><defs><style>.cls-1{fill:#fff;}</style></defs><title>pro gaming</title><path class="cls-1" d="M1557.6,562.87v42.67a10.15,10.15,0,0,1-10.15,10.15H1421.07a11,11,0,0,1-11-11v-42a10.15,10.15,0,0,1,10.15-10.15h53v-3c0-12.77,0-25.53,0-38.3,0-1.94-.41-3-2.38-3.85-13.15-5.91-20.24-18.87-18.45-33.26,1.66-13.35,12.41-24.33,26.22-26.77,15.15-2.68,30.33,6.61,35.27,21.59a31.28,31.28,0,0,1-16,37.79c-2.88,1.37-3.74,2.9-3.69,6,0.2,12.07.08,24.14,0.08,36.21v3.42h52.85A10.4,10.4,0,0,1,1557.6,562.87Zm-105.48,21.47a10.55,10.55,0,1,0-10.7,10.47A10.58,10.58,0,0,0,1452.12,584.34Z" transform="translate(-1410.11 -447)"/></svg>