<svg id="Layer_1" data-name="Layer 1" xmlns="http://www.w3.org/2000/svg" viewBox="0 0 143.47 169.88"><defs><style>.cls-1{fill:#fff;}</style></defs><title>sex podcast</title><path class="cls-1" d="M309,448.12c-7.05-.18-14.11-0.14-21.16,0-3.6.07-5.53,2.07-5.35,5s2.09,4.28,5.6,4.31c3.13,0,6.26,0,9.47,0l-22.29,22.36c-22-15.42-44-15.23-66.13.22l-4.75-4.56c2.62-2.5,5.1-4.73,7.43-7.12s2.59-4.94.6-7-4.63-1.95-7.05.4-4.59,4.85-7.13,7.56L187.75,458.1c3.88,0,6.86.06,9.84,0,3.34-.08,5.36-1.88,5.26-4.68-0.12-3.13-2.05-4.59-5-4.62q-10.58-.13-21.17,0c-2.87,0-4.58,1.67-4.61,4.55-0.08,7.05-.09,14.11,0,21.16,0,3.22,2.19,5.39,4.88,5.09,3-.34,4.37-2.24,4.33-5.25s0-6.11,0-9.16l10.94,10.89c-2.05,1.86-4.51,4-6.82,6.21-2.62,2.56-2.9,5.28-.93,7.27s5.22,1.75,7.69-.69c2.28-2.26,4.46-4.62,6.66-6.9l4.85,4.66c-12.19,16.23-15.15,34-7.43,52.68S219,568.26,239,571v22.37c-4,0-6.92-.08-10.13,0-3.44.11-5.36,1.83-5.35,4.7s1.81,4.46,5.29,4.51c3.31,0,6.6,0,10.13,0,0,3.4,0,6.28,0,9.16,0,4.06,1.5,6,4.52,6.12s4.85-2.1,4.94-6.2c0.06-2.95,0-5.9,0-9.08,3.67,0,6.78,0,9.88,0,3.52,0,5.39-1.56,5.5-4.38s-1.78-4.76-5.34-4.84c-3.2-.07-6.46,0-9.46,0v-22.4c42-5.44,60.22-52.23,35.07-84,7.43-7.43,14.73-14.8,22.14-22.22,0,2.93-.08,6.13,0,9.33,0,1,0,2.47.55,2.93,1.42,1.11,3.21,2.43,4.84,2.41,2.46,0,3.77-2.13,3.81-4.58,0.11-6.59.12-13.18,0.11-19.77C315.49,450.89,313.14,448.23,309,448.12Zm-24.23,71.93a42.24,42.24,0,0,1-42.24,41.7c-23.16-.12-42.21-19.36-42-42.37a42.25,42.25,0,0,1,42.8-41.85C266.11,477.64,285,497,284.73,520.06Z" transform="translate(-172.03 -448)"/><path class="cls-1" d="M243.33,477.54a42.25,42.25,0,0,0-42.8,41.85c-0.26,23,18.79,42.25,42,42.37a42.24,42.24,0,0,0,42.24-41.7C285,497,266.11,477.64,243.33,477.54Zm-0.56,70a27.91,27.91,0,1,1,27.91-27.91A27.91,27.91,0,0,1,242.76,547.55Z" transform="translate(-172.03 -448)"/></svg>