<svg id="Layer_1" data-name="Layer 1" xmlns="http://www.w3.org/2000/svg" viewBox="0 0 128.77 169.96"><defs><style>.cls-1{fill:#fff;}</style></defs><title>sound booth</title><rect class="cls-1" y="124.1" width="36.67" height="18.16" rx="3.43" ry="3.43"/><rect class="cls-1" x="92.12" y="124.04" width="36.61" height="18.26" rx="3.43" ry="3.43"/><rect class="cls-1" x="46.1" y="68.88" width="36.58" height="18.2" rx="3.43" ry="3.43"/><rect class="cls-1" x="46.09" y="124.08" width="36.58" height="18.2" rx="3.43" ry="3.43"/><rect class="cls-1" x="92.11" y="96.49" width="36.61" height="18.23" rx="3.43" ry="3.43"/><rect class="cls-1" x="0.04" y="151.78" width="36.68" height="18.16" rx="3.43" ry="3.43"/><rect class="cls-1" x="92.11" y="151.76" width="36.66" height="18.18" rx="3.43" ry="3.43"/><rect class="cls-1" x="46.1" y="96.54" width="36.54" height="18.21" rx="3.43" ry="3.43"/><rect class="cls-1" x="46.04" y="151.81" width="36.6" height="18.16" rx="3.43" ry="3.43"/><path class="cls-1" d="M1745.27,446.52h-121.2c-3.56,0-5.15,4.12-2.37,6.18l62.79,36.3,63.15-36.29C1750.42,450.66,1748.84,446.52,1745.27,446.52Z" transform="translate(-1620.29 -446.52)"/></svg>